<?xml version="1.0" standalone="no"?>
<!DOCTYPE svg PUBLIC "-//W3C//DTD SVG 20010904//EN"
 "http://www.w3.org/TR/2001/REC-SVG-20010904/DTD/svg10.dtd">
<svg version="1.0" xmlns="http://www.w3.org/2000/svg"
 width="216.000000pt" height="220.000000pt" viewBox="0 0 216.000000 220.000000"
 preserveAspectRatio="xMidYMid meet">
<metadata>
Created by potrace 1.10, written by Peter Selinger 2001-2011
</metadata>
<g transform="translate(0.000000,220.000000) scale(0.100000,-0.100000)"
fill="#000000" stroke="none">
<path d="M449 1458 c-106 -183 -199 -342 -206 -354 -12 -18 6 -53 191 -370
l204 -349 160 -3 161 -2 3 89 3 89 -70 20 c-173 51 -313 199 -360 379 -45 172
10 367 140 497 69 69 177 131 247 142 l38 7 0 93 0 94 -159 0 -159 0 -193
-332z"/>
<path d="M1149 1775 c0 -8 0 -46 0 -85 0 -38 0 -74 0 -79 1 -5 18 -11 39 -15
70 -11 178 -73 247 -142 102 -102 155 -234 155 -384 0 -214 -161 -427 -371
-491 l-68 -20 -3 -82 c-2 -48 1 -85 8 -91 7 -7 62 -9 163 -6 l153 5 204 350
c182 313 202 352 190 370 -7 11 -99 170 -206 353 l-193 332 -159 0 c-133 0
-158 -2 -159 -15z"/>
<path d="M826 1215 l-77 -134 62 -108 c34 -60 70 -119 79 -133 l18 -25 153 5
153 5 73 128 74 128 -77 134 -76 135 -153 0 -153 0 -76 -135z m289 -70 c38
-37 35 -95 -6 -129 -17 -14 -41 -26 -54 -26 -13 0 -37 12 -54 26 -63 53 -28
154 54 154 25 0 44 -8 60 -25z"/>
</g>
</svg>
