 <svg  version="1.0" xmlns="http://www.w3.org/2000/svg"  width="299.000000pt" height="258.000000pt" viewBox="0 0 299.000000 258.000000"  preserveAspectRatio="xMidYMid meet">  <g transform="translate(0.000000,258.000000) scale(0.100000,-0.100000)" fill="#ffffff" stroke="none"> <path d="M853 1580 c-112 -192 -203 -354 -203 -360 0 -6 91 -166 202 -355 l201 -345 159 0 158 0 0 89 0 89 -69 21 c-213 65 -371 280 -371 504 1 228 175 453 394 508 l46 11 0 94 0 94 -157 0 -158 0 -202 -350z"/> <path d="M1560 1831 l0 -89 46 -11 c82 -21 166 -71 235 -140 148 -148 195 -353 125 -546 -58 -159 -176 -272 -340 -326 l-66 -22 0 -88 0 -89 159 0 158 0 199 342 c109 188 200 348 202 355 2 7 -87 168 -198 358 l-202 345 -159 0 -159 0 0 -89z"/> <path d="M1237 1355 l-77 -135 77 -135 78 -135 150 0 150 0 77 135 77 135 -77 135 -77 135 -150 0 -151 0 -77 -135z m272 -60 c32 -16 41 -33 41 -78 -1 -36 -15 -58 -47 -75 -33 -18 -59 -14 -92 14 -25 20 -31 34 -31 64 0 30 6 44 31 64 35 30 58 32 98 11z"/> </g> </svg> 