<svg width="94" height="93" viewBox="0 0 94 93" fill="none" xmlns="http://www.w3.org/2000/svg">
<path d="M93.6486 46.4426C93.6486 20.7897 72.6834 -9.16418e-07 46.8345 -2.04631e-06C20.9856 -3.1762e-06 -9.08749e-07 20.7897 -2.03007e-06 46.4426C-3.15139e-06 72.0954 20.9652 92.8649 46.8345 92.8649C72.7039 92.8649 93.6486 72.0752 93.6486 46.4426ZM46.8754 66.3408L39.8257 66.3408C28.7301 66.3408 19.7392 57.4251 19.7392 46.4426L19.7392 46.4223L26.748 46.4223L26.748 39.4721C26.7684 28.4896 35.7389 19.5942 46.8345 19.5942L46.8754 19.5942L46.8754 26.5444L53.8842 26.5444C64.9594 26.5647 73.889 35.4398 73.9095 46.4223L66.9006 46.4223L66.9006 53.3928C66.9006 64.355 57.9506 73.2504 46.8754 73.2909L46.8754 66.3408Z" fill="#0B0F14"/>
</svg>
