<svg width="32" height="32" viewBox="0 0 32 32" fill="none" xmlns="http://www.w3.org/2000/svg">
<path d="M32 16.0035C32 7.16387 24.8361 -3.13142e-07 16.0035 -6.99229e-07C7.17085 -1.08532e-06 1.59421e-06 7.16386 1.20781e-06 16.0035C8.21421e-07 24.8431 7.16387 32 16.0035 32C24.8431 32 32 24.8361 32 16.0035ZM16.0175 22.8601L13.6086 22.8601C9.81715 22.8601 6.74493 19.7879 6.74493 16.0035L6.74493 15.9965L9.13986 15.9965L9.13986 13.6016C9.14685 9.81715 12.2121 6.75191 16.0035 6.75191L16.0175 6.75191L16.0175 9.14685L18.4124 9.14685C22.1968 9.15383 25.2481 12.2121 25.2551 15.9965L22.8601 15.9965L22.8601 18.3984C22.8601 22.1759 19.8019 25.2411 16.0175 25.2551L16.0175 22.8601Z" fill="white"/>
</svg>
